<mxfile host="app.diagrams.net" modified="2024-02-21T12:54:17.877Z" agent="Mozilla/5.0 (Macintosh; Intel Mac OS X 10_15_7) AppleWebKit/537.36 (KHTML, like Gecko) Chrome/121.0.0.0 Safari/537.36" etag="Eye-UuW6vzvDOajS9Rh4" version="23.1.5" type="github">
  <diagram name="第 1 页" id="hsL5zEzna-w4BdSbxTTW">
    <mxGraphModel dx="1026" dy="1724" grid="1" gridSize="10" guides="1" tooltips="1" connect="1" arrows="1" fold="1" page="1" pageScale="1" pageWidth="827" pageHeight="1169" math="0" shadow="0">
      <root>
        <mxCell id="0" />
        <mxCell id="1" parent="0" />
        <mxCell id="rBkjVvntu-3yIy-otj2K-1" value="缓存问题" style="ellipse;whiteSpace=wrap;html=1;" vertex="1" parent="1">
          <mxGeometry x="30" y="200" width="120" height="80" as="geometry" />
        </mxCell>
        <mxCell id="rBkjVvntu-3yIy-otj2K-2" value="缓存击穿" style="rounded=1;whiteSpace=wrap;html=1;" vertex="1" parent="1">
          <mxGeometry x="210" y="210" width="120" height="60" as="geometry" />
        </mxCell>
        <mxCell id="rBkjVvntu-3yIy-otj2K-9" style="edgeStyle=orthogonalEdgeStyle;rounded=0;orthogonalLoop=1;jettySize=auto;html=1;exitX=1;exitY=0.5;exitDx=0;exitDy=0;entryX=0;entryY=0.5;entryDx=0;entryDy=0;" edge="1" parent="1" source="rBkjVvntu-3yIy-otj2K-3" target="rBkjVvntu-3yIy-otj2K-5">
          <mxGeometry relative="1" as="geometry" />
        </mxCell>
        <mxCell id="rBkjVvntu-3yIy-otj2K-25" style="edgeStyle=orthogonalEdgeStyle;rounded=0;orthogonalLoop=1;jettySize=auto;html=1;exitX=1;exitY=0.5;exitDx=0;exitDy=0;entryX=0;entryY=0.5;entryDx=0;entryDy=0;" edge="1" parent="1" source="rBkjVvntu-3yIy-otj2K-3" target="rBkjVvntu-3yIy-otj2K-18">
          <mxGeometry relative="1" as="geometry" />
        </mxCell>
        <mxCell id="rBkjVvntu-3yIy-otj2K-3" value="缓存雪崩" style="rounded=1;whiteSpace=wrap;html=1;" vertex="1" parent="1">
          <mxGeometry x="210" y="80" width="120" height="60" as="geometry" />
        </mxCell>
        <mxCell id="rBkjVvntu-3yIy-otj2K-4" value="缓存穿透" style="rounded=1;whiteSpace=wrap;html=1;" vertex="1" parent="1">
          <mxGeometry x="210" y="300" width="120" height="60" as="geometry" />
        </mxCell>
        <mxCell id="rBkjVvntu-3yIy-otj2K-10" value="" style="endArrow=classic;html=1;rounded=0;entryX=0;entryY=0.5;entryDx=0;entryDy=0;" edge="1" parent="1" target="rBkjVvntu-3yIy-otj2K-3">
          <mxGeometry width="50" height="50" relative="1" as="geometry">
            <mxPoint x="150" y="240" as="sourcePoint" />
            <mxPoint x="200" y="190" as="targetPoint" />
          </mxGeometry>
        </mxCell>
        <mxCell id="rBkjVvntu-3yIy-otj2K-11" value="" style="endArrow=classic;html=1;rounded=0;" edge="1" parent="1" target="rBkjVvntu-3yIy-otj2K-2">
          <mxGeometry width="50" height="50" relative="1" as="geometry">
            <mxPoint x="150" y="240" as="sourcePoint" />
            <mxPoint x="200" y="190" as="targetPoint" />
          </mxGeometry>
        </mxCell>
        <mxCell id="rBkjVvntu-3yIy-otj2K-12" value="" style="endArrow=classic;html=1;rounded=0;entryX=0;entryY=0.5;entryDx=0;entryDy=0;" edge="1" parent="1" target="rBkjVvntu-3yIy-otj2K-4">
          <mxGeometry width="50" height="50" relative="1" as="geometry">
            <mxPoint x="150" y="240" as="sourcePoint" />
            <mxPoint x="200" y="190" as="targetPoint" />
          </mxGeometry>
        </mxCell>
        <mxCell id="rBkjVvntu-3yIy-otj2K-16" value="" style="group" vertex="1" connectable="0" parent="1">
          <mxGeometry x="414" y="-20" width="265" height="120" as="geometry" />
        </mxCell>
        <mxCell id="rBkjVvntu-3yIy-otj2K-5" value="大量key在同一时间过期&lt;br&gt;压力打入数据库层" style="text;html=1;align=center;verticalAlign=middle;whiteSpace=wrap;rounded=0;fillColor=#f8cecc;strokeColor=#b85450;" vertex="1" parent="rBkjVvntu-3yIy-otj2K-16">
          <mxGeometry y="35" width="136" height="50" as="geometry" />
        </mxCell>
        <mxCell id="rBkjVvntu-3yIy-otj2K-6" value="随机设置&lt;br&gt;过期时间" style="rounded=0;whiteSpace=wrap;html=1;" vertex="1" parent="rBkjVvntu-3yIy-otj2K-16">
          <mxGeometry x="190" width="75" height="35" as="geometry" />
        </mxCell>
        <mxCell id="rBkjVvntu-3yIy-otj2K-13" style="edgeStyle=orthogonalEdgeStyle;rounded=0;orthogonalLoop=1;jettySize=auto;html=1;exitX=1;exitY=0.5;exitDx=0;exitDy=0;entryX=0;entryY=0.5;entryDx=0;entryDy=0;" edge="1" parent="rBkjVvntu-3yIy-otj2K-16" source="rBkjVvntu-3yIy-otj2K-5" target="rBkjVvntu-3yIy-otj2K-6">
          <mxGeometry relative="1" as="geometry" />
        </mxCell>
        <mxCell id="rBkjVvntu-3yIy-otj2K-7" value="互斥锁" style="rounded=0;whiteSpace=wrap;html=1;" vertex="1" parent="rBkjVvntu-3yIy-otj2K-16">
          <mxGeometry x="190" y="41.25" width="75" height="37.5" as="geometry" />
        </mxCell>
        <mxCell id="rBkjVvntu-3yIy-otj2K-14" style="edgeStyle=orthogonalEdgeStyle;rounded=0;orthogonalLoop=1;jettySize=auto;html=1;exitX=1;exitY=0.5;exitDx=0;exitDy=0;entryX=0;entryY=0.5;entryDx=0;entryDy=0;" edge="1" parent="rBkjVvntu-3yIy-otj2K-16" source="rBkjVvntu-3yIy-otj2K-5" target="rBkjVvntu-3yIy-otj2K-7">
          <mxGeometry relative="1" as="geometry" />
        </mxCell>
        <mxCell id="rBkjVvntu-3yIy-otj2K-8" value="缓存预热" style="rounded=0;whiteSpace=wrap;html=1;" vertex="1" parent="rBkjVvntu-3yIy-otj2K-16">
          <mxGeometry x="190" y="85" width="75" height="35" as="geometry" />
        </mxCell>
        <mxCell id="rBkjVvntu-3yIy-otj2K-15" style="edgeStyle=orthogonalEdgeStyle;rounded=0;orthogonalLoop=1;jettySize=auto;html=1;exitX=1;exitY=0.5;exitDx=0;exitDy=0;entryX=0;entryY=0.5;entryDx=0;entryDy=0;" edge="1" parent="rBkjVvntu-3yIy-otj2K-16" source="rBkjVvntu-3yIy-otj2K-5" target="rBkjVvntu-3yIy-otj2K-8">
          <mxGeometry relative="1" as="geometry" />
        </mxCell>
        <mxCell id="rBkjVvntu-3yIy-otj2K-17" value="" style="group" vertex="1" connectable="0" parent="1">
          <mxGeometry x="414" y="110" width="265" height="120" as="geometry" />
        </mxCell>
        <mxCell id="rBkjVvntu-3yIy-otj2K-18" value="Redis宕机" style="text;html=1;align=center;verticalAlign=middle;whiteSpace=wrap;rounded=0;fillColor=#f8cecc;strokeColor=#b85450;" vertex="1" parent="rBkjVvntu-3yIy-otj2K-17">
          <mxGeometry y="35" width="136" height="50" as="geometry" />
        </mxCell>
        <mxCell id="rBkjVvntu-3yIy-otj2K-21" value="熔断限流" style="rounded=0;whiteSpace=wrap;html=1;" vertex="1" parent="rBkjVvntu-3yIy-otj2K-17">
          <mxGeometry x="190" y="41.25" width="75" height="37.5" as="geometry" />
        </mxCell>
        <mxCell id="rBkjVvntu-3yIy-otj2K-22" style="edgeStyle=orthogonalEdgeStyle;rounded=0;orthogonalLoop=1;jettySize=auto;html=1;exitX=1;exitY=0.5;exitDx=0;exitDy=0;entryX=0;entryY=0.5;entryDx=0;entryDy=0;" edge="1" parent="rBkjVvntu-3yIy-otj2K-17" source="rBkjVvntu-3yIy-otj2K-18" target="rBkjVvntu-3yIy-otj2K-21">
          <mxGeometry relative="1" as="geometry" />
        </mxCell>
      </root>
    </mxGraphModel>
  </diagram>
</mxfile>
